<svg xmlns="http://www.w3.org/2000/svg" version="1.1" xmlns:xlink="http://www.w3.org/1999/xlink" width="1000" height="1000"><g clip-path="url(#SvgjsClipPath1119)"><rect width="1000" height="1000" fill="#2b7fff"></rect><g transform="matrix(3.5,0,0,3.5,150,262)"><svg xmlns="http://www.w3.org/2000/svg" version="1.1" xmlns:xlink="http://www.w3.org/1999/xlink" xml:space="preserve" width="200px" height="136px" style="shape-rendering:geometricPrecision; text-rendering:geometricPrecision; image-rendering:optimizeQuality; fill-rule:evenodd; clip-rule:evenodd" viewBox="0 0 130.56 89" xmlns:xodm="http://www.corel.com/coreldraw/odm/2003"><defs>
  <style type="text/css">
   
    .fil0 {fill:#FEFEFE}
   
  </style>
 <clipPath id="SvgjsClipPath1119"><rect width="1000" height="1000" x="0" y="0" rx="400" ry="400"></rect></clipPath></defs><g id="Vrstva_x0020_1">
  <metadata id="CorelCorpID_0Corel-Layer"></metadata>
  <path class="fil0" d="M0.2 68.96c-0.51,5.19 -0.15,8.27 2.14,12.13 5.26,8.9 17.21,11.09 23.22,2.41 0.91,-1.32 2.24,-3.21 2.9,-4.61l0.21 0.07 9.6 -14.83c0.32,5.33 -0.37,11.07 0.24,16.34 0.21,0.27 1,3.22 2.39,4.7 0.27,0.29 0.42,0.35 0.63,0.59l0.32 0.55c1.45,0.82 2.21,1.64 4.22,2.25 2.44,0.75 3.61,0.3 5.91,0.29l2.94 -0.98c3.74,-1.98 14.61,-19.22 18.56,-24.26 0.24,1.42 0.09,12.04 0.09,14.42 0,4.35 2.26,8.24 5.07,9.37 0.83,1.42 5.46,1.78 7.44,1.38 2.67,-0.55 4.85,-2.21 5.97,-3.68l17.57 -30.16c9.21,-15.69 -1.71,-28.35 -13.9,-25.94 -5.51,1.09 -7.78,4.49 -10.52,8.65 -1.02,1.55 -6.9,10.83 -7.59,11.42 -0.45,-5.8 1.05,-10.12 -3.95,-15.64 -2.9,-3.2 -7.91,-5.79 -14.17,-4.38 -5.55,1.25 -7.97,4.92 -10.6,8.8 -2.56,3.78 -5.2,7.63 -7.9,11.31 -0.64,-3.56 0.54,-8.92 -0.47,-12.39 -2.05,-7.04 -9.62,-10.13 -15.9,-6.66 -2.83,1.56 -4.04,3.99 -5.8,6.85 -3.28,5.35 -6.51,10.54 -9.78,15.73 -1.54,2.45 -6.03,9.44 -7.22,11.74 -0.84,1.62 -1.16,3.14 -1.62,4.53zm115.15 -68.96c8.4,0 15.21,6.81 15.21,15.21 0,8.4 -6.81,15.21 -15.21,15.21 -8.4,0 -15.21,-6.81 -15.21,-15.21 0,-8.4 6.81,-15.21 15.21,-15.21z"></path>
 </g></svg></g></g></svg>